<?xml version="1.0" encoding="UTF-8" standalone="no"?>
<svg
   xmlns:dc="http://purl.org/dc/elements/1.1/"
   xmlns:cc="http://creativecommons.org/ns#"
   xmlns:rdf="http://www.w3.org/1999/02/22-rdf-syntax-ns#"
   xmlns:svg="http://www.w3.org/2000/svg"
   xmlns="http://www.w3.org/2000/svg"
   xmlns:sodipodi="http://sodipodi.sourceforge.net/DTD/sodipodi-0.dtd"
   xmlns:inkscape="http://www.inkscape.org/namespaces/inkscape"
   width="28.622173mm"
   height="36mm"
   viewBox="0 0 28.622173 36"
   version="1.1"
   id="svg887"
   inkscape:version="1.0.2 (e86c870879, 2021-01-15)"
   sodipodi:docname="chimitheque_logo_simple.svg">
  <defs
     id="defs881" />
  <sodipodi:namedview
     id="base"
     pagecolor="#ffffff"
     bordercolor="#666666"
     borderopacity="1.0"
     inkscape:pageopacity="0.0"
     inkscape:pageshadow="2"
     inkscape:zoom="1.979899"
     inkscape:cx="63.63417"
     inkscape:cy="106.15096"
     inkscape:document-units="mm"
     inkscape:current-layer="layer1"
     showgrid="false"
     inkscape:window-width="1916"
     inkscape:window-height="1035"
     inkscape:window-x="1280"
     inkscape:window-y="20"
     inkscape:window-maximized="0"
     inkscape:document-rotation="0" />
  <metadata
     id="metadata884">
    <rdf:RDF>
      <cc:Work
         rdf:about="">
        <dc:format>image/svg+xml</dc:format>
        <dc:type
           rdf:resource="http://purl.org/dc/dcmitype/StillImage" />
        <dc:title />
      </cc:Work>
    </rdf:RDF>
  </metadata>
  <g
     inkscape:label="Calque 1"
     inkscape:groupmode="layer"
     id="layer1"
     transform="translate(-11.051985,-7.9657694)">
    <g
       id="g5215"
       transform="matrix(1.2308937,0,0,1.2308937,-298.44988,-187.00814)"
       inkscape:export-filename="/home/thbellem/workspace/workspace_go/src/github.com/tbellembois/gochimitheque/static/img/logo_chimitheque_simple.png"
       inkscape:export-xdpi="26.811111"
       inkscape:export-ydpi="26.811111">
      <g
         id="g6"
         transform="matrix(0.26458333,0,0,0.26458333,241.29622,150.8131)">
        <path
           id="path2"
           d="m 76.266,60.555 h 0.869 v 7.01 h -0.869 z"
           inkscape:connector-curvature="0"
           style="fill:#ffffff" />
        <path
           id="path4"
           d="m 81.954,66.419 c 0,0.415 0.02,0.819 0.069,1.146 h -0.78 l -0.068,-0.603 h -0.03 c -0.267,0.375 -0.779,0.711 -1.461,0.711 -0.968,0 -1.461,-0.681 -1.461,-1.372 0,-1.155 1.026,-1.787 2.873,-1.777 v -0.099 c 0,-0.385 -0.109,-1.105 -1.086,-1.096 -0.454,0 -0.919,0.128 -1.254,0.355 l -0.197,-0.582 c 0.395,-0.247 0.977,-0.415 1.579,-0.415 1.461,0 1.816,0.997 1.816,1.945 z m -0.839,-1.293 c -0.948,-0.02 -2.024,0.148 -2.024,1.076 0,0.572 0.376,0.829 0.81,0.829 0.632,0 1.037,-0.395 1.175,-0.8 0.03,-0.099 0.04,-0.197 0.04,-0.276 v -0.829 z"
           inkscape:connector-curvature="0"
           style="fill:#ffffff" />
      </g>
      <rect
         id="rect8"
         height="10.180902"
         width="10.180902"
         stroke-miterlimit="10"
         y="165.75517"
         x="260.67801"
         style="fill:none;stroke:#ffffff;stroke-width:0.227912;stroke-miterlimit:10" />
      <g
         id="g12"
         transform="matrix(0.26458333,0,0,0.26458333,241.29622,150.8131)">
        <path
           id="path10"
           d="m 77.711,86.215 h -0.02 l -1.116,0.603 -0.168,-0.662 1.402,-0.75 h 0.74 v 6.417 H 77.71 v -5.608 z"
           inkscape:connector-curvature="0"
           style="fill:#ffffff" />
      </g>
      <circle
         id="circle14"
         r="3.6160603"
         cy="184.03127"
         cx="271.08194"
         style="fill:#010101;stroke-width:0.264583" />
      <g
         id="g18"
         transform="matrix(0.26458333,0,0,0.26458333,241.29622,150.8131)">
        <path
           id="path16"
           d="m 107.196,116.936 c 1.264,-1.165 2.937,-1.942 4.703,-2.156 1.743,-0.236 3.62,0.076 5.227,0.855 1.613,0.791 2.997,2.055 3.883,3.604 0.906,1.537 1.281,3.352 1.085,5.059 -0.383,-3.417 -2.474,-6.363 -5.406,-7.764 -1.462,-0.717 -3.063,-1.042 -4.721,-0.979 -1.636,0.073 -3.277,0.531 -4.771,1.381 z"
           inkscape:connector-curvature="0"
           style="fill:#ffffff" />
      </g>
      <circle
         id="circle20"
         r="2.6916063"
         cy="161.09189"
         cx="257.50223"
         style="fill:#010101;stroke-width:0.264583" />
      <circle
         id="circle22"
         r="1.5390812"
         cy="166.836"
         cx="272.04953"
         style="fill:#010101;stroke-width:0.264583" />
      <g
         id="g26"
         transform="matrix(0.26458333,0,0,0.26458333,241.29622,150.8131)">
        <path
           id="path24"
           d="m 113.943,57.893 c 0.465,-0.595 1.198,-1.001 1.983,-1.141 0.766,-0.152 1.645,-0.021 2.369,0.329 0.731,0.363 1.354,0.951 1.716,1.671 0.37,0.711 0.483,1.545 0.272,2.273 -0.404,-1.443 -1.274,-2.488 -2.427,-3.047 -0.581,-0.287 -1.183,-0.43 -1.864,-0.452 -0.662,-0.011 -1.336,0.11 -2.049,0.367 z"
           inkscape:connector-curvature="0"
           style="fill:#ffffff" />
      </g>
      <circle
         id="circle28"
         r="2.1854584"
         cy="174.63036"
         cx="253.63029"
         style="fill:#010101;stroke-width:0.264583" />
      <circle
         id="circle30"
         r="2.4704146"
         cy="180.54617"
         cx="256.44281"
         style="fill:#010101;stroke-width:0.264583" />
      <g
         id="g34"
         transform="matrix(0.26458333,0,0,0.26458333,241.29622,150.8131)">
        <path
           id="path32"
           d="m 53.572,106.494 c 0.82,-0.859 1.979,-1.422 3.203,-1.596 1.204,-0.189 2.529,0.021 3.65,0.564 1.127,0.555 2.091,1.445 2.688,2.537 0.607,1.081 0.847,2.354 0.636,3.521 -0.395,-2.328 -1.812,-4.225 -3.763,-5.16 -0.976,-0.48 -2.025,-0.704 -3.145,-0.689 -1.1,0.022 -2.206,0.304 -3.269,0.823 z"
           inkscape:connector-curvature="0"
           style="fill:#ffffff" />
      </g>
      <line
         id="line36"
         y2="169.3125"
         x2="261.24078"
         y1="163.38107"
         x1="258.91324"
         stroke-miterlimit="10"
         style="fill:none;stroke:#010101;stroke-width:0.719111;stroke-miterlimit:10" />
      <line
         id="line38"
         y2="169.87209"
         x2="265.37991"
         y1="167.53476"
         x1="270.77502"
         stroke-miterlimit="10"
         style="fill:none;stroke:#010101;stroke-width:0.529167;stroke-miterlimit:10" />
      <line
         id="line40"
         y2="181.10948"
         x2="268.95206"
         y1="174.43033"
         x1="264.02551"
         stroke-miterlimit="10"
         style="fill:none;stroke:#010101;stroke-width:0.529167;stroke-miterlimit:10" />
      <line
         id="line42"
         y2="178.5618"
         x2="257.90994"
         y1="173.69717"
         x1="260.67801"
         stroke-miterlimit="10"
         style="fill:none;stroke:#010101;stroke-width:0.63336;stroke-miterlimit:10" />
      <line
         id="line44"
         y2="172.4449"
         x2="258.56213"
         y1="173.45403"
         x1="255.47047"
         stroke-miterlimit="10"
         style="fill:none;stroke:#010101;stroke-width:0.529167;stroke-miterlimit:10" />
      <circle
         id="circle46"
         r="3.6160603"
         cy="171.41566"
         cx="262.02844"
         style="fill:#010101;stroke-width:0.264583" />
      <g
         id="g50"
         transform="matrix(0.26458333,0,0,0.26458333,241.29622,150.8131)">
        <path
           id="path48"
           d="m 72.979,69.256 c 1.136,-1.347 2.844,-2.248 4.67,-2.544 0.435,-0.081 0.961,-0.124 1.368,-0.125 0.484,0.005 0.957,0.025 1.419,0.092 0.932,0.126 1.842,0.418 2.692,0.826 1.705,0.818 3.126,2.199 3.994,3.843 0.877,1.635 1.177,3.557 0.756,5.268 -0.421,-1.704 -1.111,-3.188 -2.073,-4.43 -0.96,-1.241 -2.186,-2.214 -3.554,-2.884 -0.683,-0.337 -1.408,-0.591 -2.156,-0.766 -0.376,-0.099 -0.756,-0.153 -1.122,-0.202 -0.446,-0.034 -0.774,-0.066 -1.19,-0.074 -1.578,-0.009 -3.182,0.329 -4.804,0.996 z"
           inkscape:connector-curvature="0"
           style="fill:#ffffff" />
      </g>
    </g>
  </g>
</svg>
