<?xml version="1.0" encoding="UTF-8" standalone="no"?>
<!-- Generator: Adobe Illustrator 15.1.0, SVG Export Plug-In . SVG Version: 6.00 Build 0)  -->

<svg
   xmlns:dc="http://purl.org/dc/elements/1.1/"
   xmlns:cc="http://creativecommons.org/ns#"
   xmlns:rdf="http://www.w3.org/1999/02/22-rdf-syntax-ns#"
   xmlns:svg="http://www.w3.org/2000/svg"
   xmlns="http://www.w3.org/2000/svg"
   xmlns:sodipodi="http://sodipodi.sourceforge.net/DTD/sodipodi-0.dtd"
   xmlns:inkscape="http://www.inkscape.org/namespaces/inkscape"
   version="1.1"
   id="Calque_1"
   x="0px"
   y="0px"
   width="254.166px"
   height="173.333px"
   viewBox="0 0 254.166 173.333"
   enable-background="new 0 0 254.166 173.333"
   xml:space="preserve"
   sodipodi:docname="chimitheque_logo.svg"
   inkscape:version="0.92.4 5da689c313, 2019-01-14"><metadata
   id="metadata81"><rdf:RDF><cc:Work
       rdf:about=""><dc:format>image/svg+xml</dc:format><dc:type
         rdf:resource="http://purl.org/dc/dcmitype/StillImage" /><dc:title></dc:title></cc:Work></rdf:RDF></metadata><defs
   id="defs79" /><sodipodi:namedview
   pagecolor="#ffffff"
   bordercolor="#666666"
   borderopacity="1"
   objecttolerance="10"
   gridtolerance="10"
   guidetolerance="10"
   inkscape:pageopacity="0"
   inkscape:pageshadow="2"
   inkscape:window-width="1716"
   inkscape:window-height="1389"
   id="namedview77"
   showgrid="false"
   inkscape:zoom="1.3615411"
   inkscape:cx="128.55192"
   inkscape:cy="86.666496"
   inkscape:window-x="3640"
   inkscape:window-y="20"
   inkscape:window-maximized="0"
   inkscape:current-layer="Calque_1" />
<g
   id="g6">
	<path
   fill="#FFFFFF"
   d="M76.266,60.555h0.869v7.01h-0.869V60.555z"
   id="path2" />
	<path
   fill="#FFFFFF"
   d="M81.954,66.419c0,0.415,0.02,0.819,0.069,1.146h-0.78l-0.068-0.603h-0.03   c-0.267,0.375-0.779,0.711-1.461,0.711c-0.968,0-1.461-0.681-1.461-1.372c0-1.155,1.026-1.787,2.873-1.777v-0.099   c0-0.385-0.109-1.105-1.086-1.096c-0.454,0-0.919,0.128-1.254,0.355l-0.197-0.582c0.395-0.247,0.977-0.415,1.579-0.415   c1.461,0,1.816,0.997,1.816,1.945V66.419z M81.115,65.126c-0.948-0.02-2.024,0.148-2.024,1.076c0,0.572,0.376,0.829,0.81,0.829   c0.632,0,1.037-0.395,1.175-0.8c0.03-0.099,0.04-0.197,0.04-0.276V65.126z"
   id="path4" />
</g>
<rect
   x="73.254"
   y="56.474"
   fill="none"
   stroke="#FFFFFF"
   stroke-width="0.8614"
   stroke-miterlimit="10"
   width="38.479"
   height="38.479"
   id="rect8" />
<g
   id="g12">
	<path
   fill="#FFFFFF"
   d="M77.711,86.215h-0.02l-1.116,0.603l-0.168-0.662l1.402-0.75h0.74v6.417h-0.839V86.215z"
   id="path10" />
</g>
<circle
   fill="#010101"
   cx="112.576"
   cy="125.549"
   r="13.667"
   id="circle14" />
<g
   id="g18">
	<path
   fill="#FFFFFF"
   d="M107.196,116.936c1.264-1.165,2.937-1.942,4.703-2.156c1.743-0.236,3.62,0.076,5.227,0.855   c1.613,0.791,2.997,2.055,3.883,3.604c0.906,1.537,1.281,3.352,1.085,5.059c-0.383-3.417-2.474-6.363-5.406-7.764   c-1.462-0.717-3.063-1.042-4.721-0.979C110.331,115.628,108.69,116.086,107.196,116.936z"
   id="path16" />
</g>
<circle
   fill="#010101"
   cx="61.251"
   cy="38.849"
   r="10.173"
   id="circle20" />
<circle
   fill="#010101"
   cx="116.233"
   cy="60.559"
   r="5.817"
   id="circle22" />
<g
   id="g26">
	<path
   fill="#FFFFFF"
   d="M113.943,57.893c0.465-0.595,1.198-1.001,1.983-1.141c0.766-0.152,1.645-0.021,2.369,0.329   c0.731,0.363,1.354,0.951,1.716,1.671c0.37,0.711,0.483,1.545,0.272,2.273c-0.404-1.443-1.274-2.488-2.427-3.047   c-0.581-0.287-1.183-0.43-1.864-0.452C115.33,57.515,114.656,57.636,113.943,57.893z"
   id="path24" />
</g>
<circle
   fill="#010101"
   cx="46.617"
   cy="90.018"
   r="8.26"
   id="circle28" />
<circle
   fill="#010101"
   cx="57.247"
   cy="112.377"
   r="9.337"
   id="circle30" />
<g
   id="g34">
	<path
   fill="#FFFFFF"
   d="M53.572,106.494c0.82-0.859,1.979-1.422,3.203-1.596c1.204-0.189,2.529,0.021,3.65,0.564   c1.127,0.555,2.091,1.445,2.688,2.537c0.607,1.081,0.847,2.354,0.636,3.521c-0.395-2.328-1.812-4.225-3.763-5.16   c-0.976-0.48-2.025-0.704-3.145-0.689C55.741,105.693,54.635,105.975,53.572,106.494z"
   id="path32" />
</g>
<line
   fill="none"
   stroke="#010101"
   stroke-width="2.7179"
   stroke-miterlimit="10"
   x1="66.584"
   y1="47.501"
   x2="75.381"
   y2="69.919"
   id="line36" />
<line
   fill="none"
   stroke="#010101"
   stroke-width="2"
   stroke-miterlimit="10"
   x1="111.416"
   y1="63.2"
   x2="91.025"
   y2="72.034"
   id="line38" />
<line
   fill="none"
   stroke="#010101"
   stroke-width="2"
   stroke-miterlimit="10"
   x1="85.906"
   y1="89.262"
   x2="104.526"
   y2="114.506"
   id="line40" />
<line
   fill="none"
   stroke="#010101"
   stroke-width="2.3938"
   stroke-miterlimit="10"
   x1="73.254"
   y1="86.491"
   x2="62.792"
   y2="104.877"
   id="line42" />
<line
   fill="none"
   stroke="#010101"
   stroke-width="2"
   stroke-miterlimit="10"
   x1="53.572"
   y1="85.572"
   x2="65.257"
   y2="81.758"
   id="line44" />
<circle
   fill="#010101"
   cx="78.358"
   cy="77.868"
   r="13.667"
   id="circle46" />
<g
   id="g50">
	<path
   fill="#FFFFFF"
   d="M72.979,69.256c1.136-1.347,2.844-2.248,4.67-2.544c0.435-0.081,0.961-0.124,1.368-0.125   c0.484,0.005,0.957,0.025,1.419,0.092c0.932,0.126,1.842,0.418,2.692,0.826c1.705,0.818,3.126,2.199,3.994,3.843   c0.877,1.635,1.177,3.557,0.756,5.268c-0.421-1.704-1.111-3.188-2.073-4.43c-0.96-1.241-2.186-2.214-3.554-2.884   c-0.683-0.337-1.408-0.591-2.156-0.766c-0.376-0.099-0.756-0.153-1.122-0.202c-0.446-0.034-0.774-0.066-1.19-0.074   C76.205,68.251,74.601,68.589,72.979,69.256z"
   id="path48" />
</g>
<g
   id="g74">
	<path
   fill="#010101"
   d="M127.792,79.438v-0.396c0-0.216-0.036-0.45-0.108-0.702c-0.072-0.252-0.222-0.486-0.45-0.702   c-0.229-0.216-0.546-0.401-0.954-0.558c-0.409-0.156-0.96-0.234-1.656-0.234c-0.648,0-1.17,0.078-1.566,0.234   c-0.396,0.157-0.702,0.354-0.918,0.594c-0.216,0.24-0.354,0.486-0.414,0.738c-0.06,0.252-0.09,0.486-0.09,0.702v0.324v16.128v0.323   c0,0.217,0.03,0.451,0.09,0.703c0.06,0.252,0.198,0.492,0.414,0.72s0.522,0.42,0.918,0.575c0.396,0.157,0.918,0.234,1.566,0.234   c0.696,0,1.248-0.077,1.656-0.234c0.408-0.155,0.726-0.342,0.954-0.558c0.228-0.216,0.378-0.45,0.45-0.702   c0.072-0.252,0.108-0.473,0.108-0.666v-0.396h3.06v0.899c0,0.289-0.048,0.673-0.144,1.152c-0.096,0.48-0.348,0.961-0.756,1.439   c-0.408,0.48-1.021,0.895-1.836,1.242c-0.816,0.348-1.944,0.522-3.384,0.522c-1.44,0-2.568-0.175-3.384-0.522   c-0.816-0.348-1.435-0.762-1.854-1.242c-0.42-0.479-0.678-0.965-0.774-1.457c-0.096-0.492-0.144-0.87-0.144-1.135v-0.899V79.438   v-0.936c0-0.264,0.048-0.642,0.144-1.134c0.096-0.492,0.354-0.978,0.774-1.458c0.419-0.479,1.038-0.894,1.854-1.242   c0.815-0.348,1.944-0.522,3.384-0.522c1.44,0,2.568,0.174,3.384,0.522c0.815,0.348,1.428,0.762,1.836,1.242   c0.408,0.48,0.66,0.966,0.756,1.458c0.096,0.492,0.144,0.87,0.144,1.134v0.936H127.792z"
   id="path52" />
	<path
   fill="#010101"
   d="M140.932,85.344v15.226h-1.764v-6.783h-4.012v6.783h-1.785V85.344h1.785v6.783h4.012v-6.783H140.932z"
   id="path54" />
	<path
   fill="#010101"
   d="M142.989,85.344h1.765v15.226h-1.765V85.344z"
   id="path56" />
	<path
   fill="#010101"
   d="M159.327,100.569h-1.764V88.264v-0.231c0-0.126-0.021-0.263-0.063-0.409s-0.13-0.283-0.263-0.41   c-0.133-0.125-0.318-0.234-0.557-0.325s-0.56-0.136-0.966-0.136c-0.392,0-0.703,0.045-0.935,0.136   c-0.23,0.091-0.406,0.207-0.524,0.347c-0.119,0.141-0.196,0.283-0.231,0.431s-0.053,0.283-0.053,0.409v0.189v12.306h-1.784V88.264   v-0.231c0-0.126-0.021-0.263-0.063-0.409s-0.13-0.283-0.263-0.41c-0.133-0.125-0.318-0.234-0.557-0.325s-0.56-0.136-0.966-0.136   c-0.378,0-0.683,0.045-0.913,0.136c-0.231,0.091-0.41,0.207-0.536,0.347c-0.126,0.141-0.206,0.283-0.241,0.431   s-0.053,0.283-0.053,0.409v0.189v12.306h-1.785V88.264v-0.547c0-0.153,0.028-0.374,0.084-0.661c0.057-0.286,0.207-0.57,0.452-0.851   c0.245-0.279,0.605-0.521,1.081-0.725c0.477-0.203,1.135-0.305,1.975-0.305c0.672,0,1.218,0.067,1.638,0.2   c0.42,0.134,0.763,0.298,1.029,0.493c0.279-0.195,0.63-0.359,1.05-0.493c0.42-0.133,0.966-0.2,1.638-0.2   c0.84,0,1.498,0.102,1.975,0.305c0.476,0.203,0.832,0.445,1.07,0.725c0.238,0.28,0.385,0.564,0.441,0.851   c0.056,0.287,0.084,0.508,0.084,0.661v0.252V100.569z"
   id="path58" />
	<path
   fill="#010101"
   d="M161.385,85.344h1.764v15.226h-1.764V85.344z"
   id="path60" />
	<path
   fill="#010101"
   d="M171.927,86.836h-2.688v13.733h-1.765V86.836h-2.688v-1.492h1.491h5.648V86.836z"
   id="path62" />
	<path
   fill="#010101"
   d="M180.956,85.344v15.226h-1.764v-6.783h-4.011v6.783h-1.785V85.344h1.785v6.783h4.011v-6.783H180.956z"
   id="path64" />
	<path
   fill="#010101"
   d="M189.504,100.569h-4.116c-0.393,0-0.738-0.073-1.039-0.221c-0.302-0.147-0.55-0.336-0.746-0.567   c-0.196-0.23-0.343-0.489-0.44-0.776c-0.099-0.286-0.147-0.563-0.147-0.829v-0.42V97.65v-9.408v-0.126v-0.399   c0-0.266,0.049-0.542,0.147-0.829c0.098-0.286,0.244-0.546,0.44-0.776c0.196-0.231,0.444-0.42,0.746-0.567   c0.301-0.147,0.646-0.221,1.039-0.221h4.116v1.491h-2.247h-1.281c-0.364,0-0.654,0.123-0.871,0.367   c-0.218,0.245-0.326,0.535-0.326,0.871v0.189v3.885h3.802v1.659h-3.802v3.864v0.189c0,0.336,0.108,0.626,0.326,0.871   c0.217,0.245,0.507,0.367,0.871,0.367h1.281h2.247V100.569z M184.358,81.375c0.084,0.084,0.217,0.213,0.399,0.388   c0.182,0.175,0.385,0.378,0.608,0.609c0.225,0.231,0.459,0.469,0.704,0.714c0.244,0.245,0.476,0.473,0.692,0.683   c0.218,0.21,0.402,0.388,0.557,0.535s0.252,0.242,0.294,0.284c0.07,0.056,0.168,0.105,0.294,0.147s0.267,0.077,0.421,0.105   c0.168,0.042,0.35,0.07,0.546,0.084c-0.364-0.588-0.693-1.127-0.987-1.617c-0.126-0.21-0.252-0.42-0.378-0.63   s-0.241-0.406-0.347-0.588c-0.104-0.182-0.199-0.336-0.283-0.462s-0.141-0.217-0.168-0.273L184.358,81.375z"
   id="path66" />
	<path
   fill="#010101"
   d="M197.715,101.157c0.069,0.028,0.262,0.098,0.577,0.21c0.315,0.111,0.676,0.238,1.081,0.378v1.765   c-0.182-0.057-0.465-0.147-0.85-0.273c-0.386-0.126-0.746-0.26-1.082-0.398c-0.392-0.154-0.721-0.326-0.987-0.516   c-0.266-0.188-0.482-0.381-0.65-0.577s-0.298-0.385-0.389-0.567c-0.091-0.182-0.157-0.336-0.199-0.461h-0.084   c-0.84,0-1.498-0.102-1.975-0.305c-0.476-0.203-0.833-0.444-1.07-0.725c-0.238-0.28-0.386-0.563-0.441-0.851   c-0.056-0.286-0.084-0.507-0.084-0.661V97.65v-9.408v-0.546c0-0.153,0.028-0.374,0.084-0.661s0.203-0.57,0.441-0.851   c0.237-0.28,0.595-0.521,1.07-0.725c0.477-0.203,1.135-0.305,1.975-0.305s1.498,0.102,1.974,0.305s0.833,0.444,1.071,0.725   c0.237,0.28,0.385,0.563,0.44,0.851s0.084,0.508,0.084,0.661v0.315v9.953v0.211c0,0.125-0.014,0.29-0.042,0.493   s-0.102,0.413-0.22,0.63c-0.119,0.217-0.291,0.431-0.515,0.641c-0.225,0.21-0.532,0.385-0.924,0.525   c0.069,0.195,0.182,0.354,0.336,0.473C197.49,101.056,197.616,101.129,197.715,101.157z M195.09,99.141   c0.405,0,0.728-0.045,0.966-0.136c0.237-0.091,0.423-0.2,0.557-0.325c0.133-0.127,0.221-0.263,0.263-0.41   c0.042-0.146,0.063-0.275,0.063-0.389v-0.23v-9.408v-0.23c0-0.127-0.021-0.263-0.063-0.41c-0.042-0.146-0.13-0.283-0.263-0.409   c-0.134-0.126-0.319-0.234-0.557-0.325c-0.238-0.092-0.561-0.137-0.966-0.137c-0.393,0-0.704,0.045-0.935,0.137   c-0.231,0.091-0.406,0.207-0.525,0.346c-0.119,0.141-0.196,0.284-0.23,0.432c-0.035,0.146-0.053,0.283-0.053,0.408v0.189v9.408   v0.189c0,0.125,0.018,0.262,0.053,0.409c0.034,0.147,0.111,0.287,0.23,0.42c0.119,0.134,0.294,0.245,0.525,0.336   C194.386,99.096,194.697,99.141,195.09,99.141z"
   id="path68" />
	<path
   fill="#010101"
   d="M207.794,97.986h-0.021v0.21c0,0.168-0.028,0.392-0.084,0.672s-0.203,0.56-0.44,0.841   c-0.238,0.279-0.596,0.521-1.071,0.724c-0.476,0.203-1.134,0.305-1.974,0.305s-1.498-0.102-1.975-0.305   c-0.476-0.202-0.833-0.444-1.07-0.724c-0.238-0.281-0.386-0.564-0.441-0.852c-0.056-0.286-0.084-0.507-0.084-0.661v-0.524V85.344   h1.785v12.328v0.188c0,0.126,0.018,0.263,0.053,0.409c0.034,0.147,0.115,0.287,0.241,0.42c0.126,0.134,0.305,0.246,0.535,0.336   c0.231,0.092,0.536,0.137,0.914,0.137c0.405,0,0.728-0.045,0.966-0.137c0.237-0.09,0.423-0.199,0.557-0.325   c0.133-0.126,0.221-0.263,0.263-0.409s0.063-0.276,0.063-0.389v-0.23V85.344h1.785V97.986z"
   id="path70" />
	<path
   fill="#010101"
   d="M216.342,100.569h-4.116c-0.406,0-0.756-0.073-1.05-0.221s-0.539-0.336-0.735-0.567   c-0.196-0.23-0.343-0.486-0.44-0.766c-0.099-0.28-0.147-0.553-0.147-0.819V97.65v-9.387v-0.547c0-0.266,0.049-0.538,0.147-0.818   c0.098-0.279,0.244-0.535,0.44-0.767s0.441-0.42,0.735-0.567c0.294-0.146,0.644-0.221,1.05-0.221h4.116v1.471h-2.269h-1.26   c-0.364,0-0.654,0.123-0.871,0.367c-0.218,0.245-0.326,0.543-0.326,0.893v0.189v3.863h3.802v1.659h-3.802v3.864v0.21   c0,0.336,0.108,0.626,0.326,0.872c0.217,0.244,0.507,0.367,0.871,0.367h1.26h2.269V100.569z"
   id="path72" />
</g>
</svg>