<?xml version="1.0" encoding="UTF-8" standalone="no"?>
<svg
   xmlns:dc="http://purl.org/dc/elements/1.1/"
   xmlns:cc="http://creativecommons.org/ns#"
   xmlns:rdf="http://www.w3.org/1999/02/22-rdf-syntax-ns#"
   xmlns:svg="http://www.w3.org/2000/svg"
   xmlns="http://www.w3.org/2000/svg"
   xmlns:sodipodi="http://sodipodi.sourceforge.net/DTD/sodipodi-0.dtd"
   xmlns:inkscape="http://www.inkscape.org/namespaces/inkscape"
   version="1.1"
   width="575.86176"
   height="197.8877"
   id="svg4656"
   sodipodi:docname="ens_logo.svg"
   inkscape:version="0.92.2 2405546, 2018-03-11">
  <metadata
     id="metadata8">
    <rdf:RDF>
      <cc:Work
         rdf:about="">
        <dc:format>image/svg+xml</dc:format>
        <dc:type
           rdf:resource="http://purl.org/dc/dcmitype/StillImage" />
      </cc:Work>
    </rdf:RDF>
  </metadata>
  <sodipodi:namedview
     pagecolor="#ffffff"
     bordercolor="#666666"
     borderopacity="1"
     objecttolerance="10"
     gridtolerance="10"
     guidetolerance="10"
     inkscape:pageopacity="0"
     inkscape:pageshadow="2"
     inkscape:window-width="1916"
     inkscape:window-height="505"
     id="namedview6"
     showgrid="false"
     inkscape:zoom="0.76059922"
     inkscape:cx="-301.07841"
     inkscape:cy="98.943848"
     inkscape:window-x="1920"
     inkscape:window-y="548"
     inkscape:window-maximized="0"
     inkscape:current-layer="svg4656" />
  <defs
     id="defs4658" />
  <g
     transform="matrix(0.26611641,0,0,0.26611641,-12.848196,26.217387)"
     id="layer1"
     inkscape:export-xdpi="90"
     inkscape:export-ydpi="90"
     inkscape:export-filename="/home/thbellem/workspace/workspace_Go/src/github.com/tbellembois/gochimitheque/static/img/ens_logo.png">
    <path
       d="m 605.19182,591.17738 h 4.30134 l 17.5692,30.37576 h 0.0975 v -30.37576 h 3.41116 v 34.5341 h -4.6002 l -17.2703,-29.78445 h -0.0975 v 29.78445 h -3.41116 v -34.5341 z m -21.66391,-0.59452 c 10.38297,0 15.28858,8.50522 15.18464,17.86159 -0.0908,10.59088 -5.23696,17.86158 -15.18464,17.86158 -9.94762,0 -15.08714,-7.2707 -15.19757,-17.86158 -0.0908,-9.35637 4.80161,-17.86159 15.19757,-17.86159 m -11.77341,17.86159 c 0,7.32268 3.65807,14.89225 11.77341,14.89225 8.11537,0 11.77344,-7.56957 11.77344,-14.89225 0,-7.32266 -3.65807,-14.89223 -11.77344,-14.89223 -8.11534,0 -11.77341,7.56957 -11.77341,14.89223 m -22.91078,2.62303 -12.81306,-19.88878 h 3.95697 l 10.54543,16.87397 10.83129,-16.87397 h 3.71003 l -12.81301,19.88878 v 14.64534 h -3.41767 v -14.64534 z m -25.93144,-19.8901 h 3.41767 v 31.56477 h 13.8526 v 2.96933 h -17.27027 z m -38.19095,0 h 16.92596 v 2.96933 h -13.50823 v 12.31925 h 12.81304 v 2.96936 h -12.81304 v 13.30683 h 14.09954 v 2.96933 h -17.51724 v -34.5341 z m -33.2898,0 h 8.55714 c 12.37127,0 17.27034,7.12126 17.27034,17.21832 0,12.51417 -8.36225,17.31578 -19.7913,17.31578 h -6.03618 z m 3.41116,31.56477 h 2.81992 c 9.79823,0 16.17872,-3.95697 16.17872,-14.54134 0,-10.54541 -6.28309,-14.0541 -13.99556,-14.0541 h -5.00308 z m -42.54613,-1.43268 c 2.0272,1.2865 4.40531,2.02723 7.62155,2.02723 4.25583,0 7.76449,-2.17668 7.76449,-7.07578 0,-6.77685 -15.83439,-7.61507 -15.83439,-16.67254 0,-5.54234 4.85363,-9.00552 10.93523,-9.00552 1.68289,0 4.40534,0.24694 6.78339,1.13706 l -0.54577,3.11881 c -1.53339,-0.83819 -3.95697,-1.28651 -6.28304,-1.28651 -3.56718,0 -7.47861,1.48791 -7.47861,5.9387 0,6.92633 15.8408,6.97177 15.8408,17.0689 0,6.97825 -5.99065,9.74621 -11.33806,9.74621 -3.35921,0 -5.97769,-0.69525 -7.81647,-1.48146 l 0.35099,-3.5151 z m -32.49978,-30.13209 h 4.30785 l 17.56269,30.37576 h 0.0975 v -30.37576 h 3.41117 v 34.5341 h -4.60021 l -17.2703,-29.78445 h -0.0908 v 29.78445 h -3.4177 v -34.5341 z m -24.29342,0 h 16.91942 v 2.96933 h -13.50175 v 12.31925 h 12.81304 v 2.96936 h -12.81304 v 13.30683 h 14.09954 v 2.96933 h -17.51721 z m 210.14613,-53.35862 h 22.93608 44.34531 c 0,16.99091 -14.7818,25.48313 -44.34531,25.48313 H 460.14335 v -25.48313 z m -61.15432,-99.39844 h 19.8758 108.55991 V 463.9099 H 524.37097 460.14335 c 0,-16.99091 14.78828,-25.48958 44.35182,-25.48958 m 128.43571,74.42214 H 460.14335 V 487.86613 H 632.93088 Z M 263.29824,438.41833 h 41.79181 22.94261 44.34535 19.86925 c 29.22568,0 43.83203,8.50522 43.83203,25.48964 h -43.83203 -64.2146 -64.73442 z m 0,49.44585 h 44.85212 v 24.97635 h -44.85212 z m 44.85212,49.95265 v 25.48311 l -44.85212,0.25978 v -25.743 h 44.85212 z m 84.0969,-49.95265 h 44.09193 v 24.97635 h -44.09193 z m 0,49.95265 h 43.83203 v 25.48311 H 392.24726 Z M 67.06913,438.41833 h 44.85209 19.88231 44.3388 19.88228 43.82554 v 25.48964 h -43.82554 -64.22108 -64.7344 z m 0,74.4222 v -24.97635 h 44.85209 19.88231 44.3388 19.88228 44.08544 v 24.97635 h -44.08544 -64.22108 z m 44.85209,24.9763 h 19.88231 44.3388 19.88228 43.82554 v 25.48311 h -43.82554 -64.22108 -64.7344 v -25.48311 z"
       id="path666"
       style="fill:#1a171b;fill-opacity:1;fill-rule:nonzero;stroke:none"
       inkscape:connector-curvature="0" />
  </g>
</svg>
